<svg width="24" height="24" viewBox="0 0 24 24" fill="none" xmlns="http://www.w3.org/2000/svg">
<path d="M13 1C13 0.447715 12.5523 -1.4335e-07 12 0C11.4477 8.37459e-08 11 0.447715 11 1L13 1ZM11.2929 23.7071C11.6834 24.0976 12.3166 24.0976 12.7071 23.7071L19.0711 17.3431C19.4616 16.9526 19.4616 16.3195 19.0711 15.9289C18.6805 15.5384 18.0474 15.5384 17.6569 15.9289L12 21.5858L6.34315 15.9289C5.95262 15.5384 5.31946 15.5384 4.92893 15.9289C4.53841 16.3195 4.53841 16.9526 4.92893 17.3431L11.2929 23.7071ZM11 1L11 23L13 23L13 1L11 1Z" fill="white"/>
</svg>
