<svg width="36" height="36" viewBox="0 0 36 36" fill="none" xmlns="http://www.w3.org/2000/svg">
<path d="M32.9181 11.8201C32.8478 10.2261 32.59 9.13021 32.2208 8.18062C31.8398 7.17266 31.2538 6.27023 30.4859 5.52003C29.7357 4.75816 28.8274 4.16616 27.8311 3.79117C26.876 3.42191 25.7858 3.16414 24.1918 3.09386C22.5859 3.01763 22.0761 3 18.003 3C13.9299 3 13.4201 3.01763 11.8201 3.08791C10.2261 3.15819 9.13022 3.41619 8.18086 3.78522C7.17266 4.16616 6.27023 4.75221 5.52003 5.52003C4.75816 6.27023 4.16639 7.17861 3.79117 8.1749C3.42191 9.13021 3.16414 10.2201 3.09386 11.8142C3.01763 13.4201 3 13.9299 3 18.003C3 22.076 3.01763 22.5859 3.08791 24.1858C3.15819 25.7799 3.41619 26.8757 3.78545 27.8253C4.16639 28.8333 4.75816 29.7357 5.52003 30.4859C6.27023 31.2478 7.17861 31.8398 8.1749 32.2148C9.13022 32.584 10.2201 32.8418 11.8144 32.9121C13.4141 32.9826 13.9242 33 17.9973 33C22.0703 33 22.5802 32.9826 24.1801 32.9121C25.7742 32.8418 26.87 32.584 27.8194 32.2148C29.8356 31.4353 31.4296 29.8413 32.2091 27.8253C32.5781 26.87 32.8361 25.7799 32.9064 24.1858C32.9767 22.5859 32.9943 22.076 32.9943 18.003C32.9943 13.9299 32.9883 13.4201 32.9181 11.8201ZM30.2165 24.0686C30.1519 25.5338 29.9058 26.3249 29.7007 26.8524C29.1966 28.1593 28.1593 29.1966 26.8524 29.7007C26.325 29.9058 25.5281 30.1519 24.0686 30.2162C22.4863 30.2868 22.0117 30.3042 18.0089 30.3042C14.0061 30.3042 13.5256 30.2868 11.949 30.2162C10.4839 30.1519 9.69269 29.9058 9.16524 29.7007C8.51486 29.4603 7.92285 29.0794 7.44234 28.5812C6.94419 28.0948 6.56325 27.5087 6.32288 26.8583C6.11776 26.3309 5.87167 25.5338 5.80734 24.0746C5.73683 22.4922 5.71943 22.0174 5.71943 18.0147C5.71943 14.0119 5.73683 13.5313 5.80734 11.9549C5.87167 10.4898 6.11776 9.69864 6.32288 9.17119C6.56325 8.52058 6.94419 7.9288 7.44829 7.44806C7.93453 6.94991 8.52058 6.56898 9.1712 6.32883C9.69864 6.12371 10.4958 5.87762 11.955 5.81306C13.5373 5.74278 14.0121 5.72515 18.0147 5.72515C22.0234 5.72515 22.498 5.74278 24.0746 5.81306C25.5397 5.87762 26.3309 6.12371 26.8584 6.32883C27.5087 6.56898 28.1007 6.94991 28.5813 7.44806C29.0794 7.93453 29.4603 8.52058 29.7007 9.17119C29.9058 9.69864 30.1519 10.4955 30.2165 11.9549C30.2868 13.5373 30.3044 14.0119 30.3044 18.0147C30.3044 22.0174 30.2868 22.4863 30.2165 24.0686Z" fill="#15162B"/>
<path d="M18.003 10.2964C13.7484 10.2964 10.2964 13.7482 10.2964 18.003C10.2964 22.2578 13.7484 25.7096 18.003 25.7096C22.2578 25.7096 25.7096 22.2578 25.7096 18.003C25.7096 13.7482 22.2578 10.2964 18.003 10.2964ZM18.003 23.0021C15.2428 23.0021 13.0039 20.7634 13.0039 18.003C13.0039 15.2426 15.2428 13.0039 18.003 13.0039C20.7634 13.0039 23.002 15.2426 23.002 18.003C23.002 20.7634 20.7634 23.0021 18.003 23.0021Z" fill="#15162B"/>
<path d="M27.8137 9.99153C27.8137 10.9851 27.0081 11.7907 26.0143 11.7907C25.0207 11.7907 24.2151 10.9851 24.2151 9.99153C24.2151 8.99775 25.0207 8.19238 26.0143 8.19238C27.0081 8.19238 27.8137 8.99775 27.8137 9.99153Z" fill="#15162B"/>
</svg>
