<svg width="36" height="36" viewBox="0 0 36 36" fill="none" xmlns="http://www.w3.org/2000/svg">
<path d="M18.061 27.0286C13.05 27.0286 10.7605 24.49 10.7605 22.6279C10.7598 22.1837 10.9431 21.7588 11.2673 21.4533C11.5915 21.1477 12.0279 20.9884 12.4739 21.0128C14.6193 21.0128 14.0581 24.2134 18.061 24.2134C20.1071 24.2134 21.309 22.9885 21.309 21.8377C21.309 21.1462 20.9117 20.3559 19.5608 20.0398L15.0911 18.9187C11.5005 18.0099 10.8747 16.0244 10.8747 14.1821C10.8747 10.3592 14.3909 8.97631 17.7382 8.97631C20.8223 8.97631 24.4874 10.6704 24.4874 12.9621C24.4874 13.95 23.6581 14.4784 22.6946 14.4784C20.862 14.4784 21.1699 11.92 17.4849 11.92C15.6523 11.92 14.6889 12.7745 14.6889 13.9697C14.6889 15.165 16.1142 15.57 17.3657 15.8416L20.6634 16.5825C24.2789 17.3925 25.2423 19.5015 25.2423 21.5216C25.2423 24.6282 22.8237 27.0286 18.056 27.0286H18.061ZM31.8972 20.4547C32.0404 19.6393 32.1118 18.813 32.1108 17.9852C32.1283 13.827 30.2912 9.87516 27.0946 7.19481C23.898 4.51446 19.671 3.38154 15.553 4.10144C14.2873 3.37669 12.8517 2.99677 11.3912 3.00002C8.39332 3.01823 5.62999 4.61612 4.13106 7.19818C2.63213 9.78024 2.62243 12.9592 4.10558 15.5502C3.27799 20.0726 4.72768 24.7116 7.98704 27.9708C11.2464 31.2299 15.903 32.6969 20.4548 31.8986C21.719 32.6227 23.1527 33.0026 24.6116 33C27.608 32.9808 30.3696 31.3836 31.8682 28.8031C33.3668 26.2226 33.3779 23.0455 31.8972 20.4547Z" fill="#15162B"/>
</svg>
