<svg width="36" height="36" viewBox="0 0 36 36" fill="none" xmlns="http://www.w3.org/2000/svg">
<g clip-path="url(#clip0_230_432)">
<path d="M35.2035 8.89352L35.2485 9.18752C34.8135 7.64402 33.639 6.45302 32.1465 6.01952L32.115 6.01202C29.3085 5.25002 18.015 5.25002 18.015 5.25002C18.015 5.25002 6.75 5.23502 3.915 6.01202C2.394 6.45302 1.218 7.64402 0.790499 9.15602L0.782999 9.18752C-0.265501 14.664 -0.273001 21.2445 0.829499 27.108L0.782999 26.811C1.218 28.3545 2.3925 29.5455 3.885 29.979L3.9165 29.9865C6.72 30.75 18.0165 30.75 18.0165 30.75C18.0165 30.75 29.28 30.75 32.1165 29.9865C33.639 29.5455 34.815 28.3545 35.2425 26.8425L35.25 26.811C35.727 24.264 36 21.333 36 18.339C36 18.2295 36 18.1185 35.9985 18.0075C36 17.9055 36 17.784 36 17.6625C36 14.667 35.727 11.736 35.2035 8.89352ZM14.412 23.4765V12.537L23.811 18.015L14.412 23.4765Z" fill="#15162B"/>
</g>
<defs>
<clipPath id="clip0_230_432">
<rect width="36" height="36" fill="white"/>
</clipPath>
</defs>
</svg>
